<?xml version="1.0" encoding="utf-8"?>
<!-- Generator: Adobe Illustrator 14.0.0, SVG Export Plug-In . SVG Version: 6.00 Build 43363)  -->
<!DOCTYPE svg PUBLIC "-//W3C//DTD SVG 1.1//EN" "http://www.w3.org/Graphics/SVG/1.1/DTD/svg11.dtd">
<svg version="1.1" id="Layer_1" xmlns="http://www.w3.org/2000/svg" xmlns:xlink="http://www.w3.org/1999/xlink" x="0px" y="0px"
	 width="65px" height="65px" viewBox="0 0 65 65" enable-background="new 0 0 65 65" xml:space="preserve">
<g>
	<g>
		<path fill="#B3B3B3" d="M29.018,26.712c-2.125-4.241-6.51-7.153-11.577-7.153C10.294,19.559,4.5,25.353,4.5,32.5
			s5.794,12.941,12.941,12.941c5.066,0,9.452-2.912,11.577-7.153L17.441,32.5L29.018,26.712z"/>
	</g>
	<g>
		<path fill="none" stroke="#000000" stroke-width="1.6176" d="M29.018,26.712c-2.125-4.241-6.51-7.153-11.577-7.153
			C10.294,19.559,4.5,25.353,4.5,32.5s5.794,12.941,12.941,12.941c5.066,0,9.452-2.912,11.577-7.153L17.441,32.5L29.018,26.712z"/>
	</g>
</g>
<path fill="#B3B3B3" stroke="#000000" stroke-width="1.6176" d="M53.029,36.544"/>
<path fill="#B3B3B3" stroke="#000000" stroke-width="1.6176" d="M43.054,24.412h-3.774v-3.774c0-0.596-0.483-1.079-1.079-1.079
	h-1.078c-0.596,0-1.079,0.483-1.079,1.079v3.774H32.27c-0.596,0-1.079,0.483-1.079,1.079v1.079c0,0.595,0.483,1.078,1.079,1.078
	h3.774v3.774c0,0.596,0.483,1.079,1.079,1.079h1.078c0.596,0,1.079-0.483,1.079-1.079v-3.774h3.774c0.596,0,1.079-0.483,1.079-1.078
	V25.49C44.132,24.895,43.649,24.412,43.054,24.412z"/>
<path fill="#B3B3B3" stroke="#000000" stroke-width="1.6176" d="M40.314,34.384l-2.66,2.677l-2.678-2.66
	c-0.422-0.42-1.105-0.417-1.525,0.005l-0.76,0.765c-0.42,0.422-0.417,1.105,0.005,1.525l2.678,2.661l-2.661,2.677
	c-0.419,0.422-0.417,1.105,0.005,1.525l0.765,0.76c0.422,0.42,1.105,0.417,1.525-0.005l2.661-2.677l2.677,2.66
	c0.423,0.42,1.105,0.417,1.525-0.005l0.76-0.765c0.419-0.422,0.417-1.105-0.005-1.525l-2.678-2.661l2.661-2.677
	c0.419-0.422,0.417-1.105-0.005-1.525l-0.765-0.76C41.417,33.959,40.734,33.961,40.314,34.384z"/>
<g>
	<path fill="#B3B3B3" stroke="#000000" stroke-width="1.6176" d="M58.422,37.353H47.637c-0.596,0-1.079,0.483-1.079,1.078v1.079
		c0,0.596,0.483,1.079,1.079,1.079h10.785c0.595,0,1.078-0.483,1.078-1.079v-1.079C59.5,37.836,59.017,37.353,58.422,37.353z"/>
	<circle fill="#B3B3B3" stroke="#000000" stroke-width="1.6176" cx="53.029" cy="34.522" r="2.022"/>
	<circle fill="#B3B3B3" stroke="#000000" stroke-width="1.6176" cx="53.029" cy="43.419" r="2.022"/>
</g>
<path fill="#B3B3B3" stroke="#000000" stroke-width="1.6176" d="M59.5,26.569c0,0.595-0.483,1.078-1.078,1.078H47.637
	c-0.596,0-1.079-0.483-1.079-1.078V25.49c0-0.596,0.483-1.079,1.079-1.079h10.785c0.595,0,1.078,0.483,1.078,1.079V26.569z"/>
</svg>
